<svg width="768" height="960" viewBox="0 0 768 960" fill="none" xmlns="http://www.w3.org/2000/svg">
  <defs>
    <linearGradient id="bg" x1="120" y1="80" x2="650" y2="860" gradientUnits="userSpaceOnUse">
      <stop stop-color="#1A1230"/>
      <stop offset="0.48" stop-color="#120D1B"/>
      <stop offset="1" stop-color="#090611"/>
    </linearGradient>
    <linearGradient id="accent" x1="154" y1="194" x2="618" y2="756" gradientUnits="userSpaceOnUse">
      <stop stop-color="#FF8F73" stop-opacity="0.95"/>
      <stop offset="0.5" stop-color="#F26C8D" stop-opacity="0.9"/>
      <stop offset="1" stop-color="#18A89F" stop-opacity="0.92"/>
    </linearGradient>
    <radialGradient id="glowA" cx="0" cy="0" r="1" gradientUnits="userSpaceOnUse" gradientTransform="translate(608 182) rotate(130.923) scale(308.633 264.766)">
      <stop stop-color="#18A89F" stop-opacity="0.42"/>
      <stop offset="1" stop-color="#18A89F" stop-opacity="0"/>
    </radialGradient>
    <radialGradient id="glowB" cx="0" cy="0" r="1" gradientUnits="userSpaceOnUse" gradientTransform="translate(188 210) rotate(60.0119) scale(245.882 214.235)">
      <stop stop-color="#FF6B7D" stop-opacity="0.4"/>
      <stop offset="1" stop-color="#FF6B7D" stop-opacity="0"/>
    </radialGradient>
    <linearGradient id="skin" x1="274" y1="280" x2="468" y2="604" gradientUnits="userSpaceOnUse">
      <stop stop-color="#FFD5C3"/>
      <stop offset="1" stop-color="#E9AD9F"/>
    </linearGradient>
    <linearGradient id="hair" x1="248" y1="238" x2="470" y2="615" gradientUnits="userSpaceOnUse">
      <stop stop-color="#3E1D2D"/>
      <stop offset="1" stop-color="#1A0F1C"/>
    </linearGradient>
  </defs>
  <rect width="768" height="960" rx="34" fill="url(#bg)"/>
  <rect width="768" height="960" rx="34" fill="url(#glowA)"/>
  <rect width="768" height="960" rx="34" fill="url(#glowB)"/>
  <circle cx="616" cy="173" r="72" fill="#18A89F" fill-opacity="0.1"/>
  <circle cx="164" cy="212" r="78" fill="#FF6B7D" fill-opacity="0.12"/>
  <path d="M168 790C168 653.072 278.072 543 415 543H440C576.928 543 687 653.072 687 790V960H168V790Z" fill="url(#accent)" fill-opacity="0.96"/>
  <path d="M543 368C543 473.486 470.486 561 381 561C291.514 561 219 473.486 219 368C219 262.514 291.514 175 381 175C470.486 175 543 262.514 543 368Z" fill="url(#hair)"/>
  <path d="M278 425C278 337.739 336.739 267 424 267C511.261 267 570 337.739 570 425V516C570 603.261 511.261 674 424 674C336.739 674 278 603.261 278 516V425Z" fill="url(#skin)"/>
  <path d="M288 433C288 316.468 378.257 221 489.5 221H506C617.743 221 708 316.468 708 433V497C708 613.532 617.743 709 506 709H489.5C378.257 709 288 613.532 288 497V433Z" fill="url(#hair)" transform="translate(-131 -46)"/>
  <path d="M315 476C315 412.487 365.039 361 426.5 361C487.961 361 538 412.487 538 476V491C538 554.513 487.961 606 426.5 606C365.039 606 315 554.513 315 491V476Z" fill="url(#skin)"/>
  <path d="M342 442C342 432.611 349.611 425 359 425H390C399.389 425 407 432.611 407 442C407 451.389 399.389 459 390 459H359C349.611 459 342 451.389 342 442Z" fill="#3A2331"/>
  <path d="M448 442C448 432.611 455.611 425 465 425H496C505.389 425 513 432.611 513 442C513 451.389 505.389 459 496 459H465C455.611 459 448 451.389 448 442Z" fill="#3A2331"/>
  <circle cx="374" cy="444" r="13" fill="#0D0A12"/>
  <circle cx="480" cy="444" r="13" fill="#0D0A12"/>
  <circle cx="379" cy="439" r="4" fill="#fff" fill-opacity="0.8"/>
  <circle cx="485" cy="439" r="4" fill="#fff" fill-opacity="0.8"/>
  <path d="M401 515C413.5 523.667 439.9 523.8 453.5 515" stroke="#C77C80" stroke-width="10" stroke-linecap="round"/>
  <path d="M356 384C382.5 365 403.5 366.5 425 382" stroke="#3A2331" stroke-width="11" stroke-linecap="round"/>
  <path d="M439 382C459.5 366.5 480.5 365 505 384" stroke="#3A2331" stroke-width="11" stroke-linecap="round"/>
  <path d="M414 477L401 518" stroke="#D39289" stroke-width="8" stroke-linecap="round"/>
  <path d="M233 775C233 703.203 291.203 645 363 645H489C560.797 645 619 703.203 619 775V960H233V775Z" fill="#1B1327" fill-opacity="0.68"/>
  <path d="M298 724C298 693.072 323.072 668 354 668H497C527.928 668 553 693.072 553 724V960H298V724Z" fill="#140F1F"/>
  <path d="M320 717C338.621 682.355 374.565 659 414.5 659C454.435 659 490.379 682.355 509 717V960H320V717Z" fill="#0F0B16"/>
  <path d="M319 717C348.997 746.524 385.41 761.286 423 761.286C460.59 761.286 497.003 746.524 527 717" stroke="#18A89F" stroke-opacity="0.6" stroke-width="8"/>
  <rect x="76" y="72" width="616" height="816" rx="30" stroke="white" stroke-opacity="0.06" stroke-width="2"/>
  <text x="108" y="826" fill="#F8F4FB" font-size="42" font-family="Segoe UI, Arial, sans-serif" font-weight="700">Sara Bloom</text>
  <text x="108" y="868" fill="#B8ADCA" font-size="20" font-family="Segoe UI, Arial, sans-serif" letter-spacing="3">VIRTUAL CREATOR / DEMO PROFILE</text>
</svg>
